<svg xmlns="http://www.w3.org/2000/svg" width="19" height="17" viewBox="0 0 19 17"><g><g><g><path fill="gray" d="M2.313 2.324A4.599 4.599 0 0 1 5.595.955c1.24 0 2.41.488 3.29 1.373l.286.288a.474.474 0 0 0 .674 0l.279-.28a4.604 4.604 0 0 1 3.29-1.373c1.239 0 2.405.488 3.28 1.369a4.657 4.657 0 0 1 1.36 3.306 4.661 4.661 0 0 1-1.363 3.306l-6.966 7.011a.32.32 0 0 1-.434 0L2.317 8.937A4.66 4.66 0 0 1 .953 5.63c0-1.247.484-2.421 1.36-3.306zM8.62 16.63a1.249 1.249 0 0 0 1.775 0l6.962-7.007A5.634 5.634 0 0 0 19 5.643c0-1.506-.581-2.921-1.639-3.986a5.536 5.536 0 0 0-3.956-1.65 5.54 5.54 0 0 0-3.901 1.595A5.555 5.555 0 0 0 5.59 0a5.545 5.545 0 0 0-3.952 1.646A5.616 5.616 0 0 0 0 5.63c0 1.501.585 2.917 1.643 3.981z"/></g></g></g></svg>