<svg xmlns="http://www.w3.org/2000/svg" width="16" height="19" viewBox="0 0 16 19"><g><g><path fill="#292929" d="M13.036 18.052H2.964c-1.078 0-1.957-.68-1.97-1.526L2.107 4.661h1.973v1.655c0 .26.223.472.497.472a.486.486 0 0 0 .498-.472V4.661h5.852v1.655c0 .26.224.472.498.472a.486.486 0 0 0 .497-.472V4.661h1.973l1.111 11.87c-.012.84-.891 1.521-1.969 1.521zM8 .944c1.612 0 2.922 1.243 2.926 2.773H5.074C5.078 2.187 6.388.944 8 .944zm8 15.523L14.848 4.145a.484.484 0 0 0-.498-.428h-2.429C11.917 1.667 10.16 0 8 0 5.84 0 4.083 1.668 4.079 3.717h-2.43a.49.49 0 0 0-.497.428L0 16.467v.043C0 17.883 1.33 19 2.964 19h10.072C14.67 19 16 17.883 16 16.51z"/></g></g></svg>