<svg xmlns="http://www.w3.org/2000/svg" width="24" height="25" viewBox="0 0 24 25"><g><g><g><path fill="gray" d="M13.177 9.44h-2.823V6.608a.471.471 0 1 0-.942 0V9.44H6.59a.471.471 0 0 0 0 .944h2.823v2.832a.471.471 0 1 0 .942 0v-2.832h2.823a.471.471 0 0 0 0-.944z"/></g><g><path fill="gray" d="M.942 9.912c0-4.945 4.01-8.968 8.941-8.968 4.93 0 8.941 4.023 8.941 8.968s-4.01 8.968-8.941 8.968c-4.93 0-8.941-4.023-8.941-8.968zm22.927 14.289l-6.992-7.294a9.896 9.896 0 0 0 2.888-6.995C19.765 4.446 15.332 0 9.883 0 4.433 0 .001 4.446.001 9.912c0 5.466 4.433 9.912 9.882 9.912a9.82 9.82 0 0 0 6.298-2.28l7.01 7.311a.466.466 0 0 0 .665.013.473.473 0 0 0 .013-.667z"/></g></g></g></svg>